<svg width="197" height="72" viewBox="0 0 197 72" fill="none" xmlns="http://www.w3.org/2000/svg">
<path d="M49.4141 0C42.7877 0 38.9539 4.5866 38.9539 12.5654V36.2628C38.9539 44.146 42.8824 48.8281 49.4141 48.8281C55.9932 48.8281 59.9217 44.146 59.9217 36.2628V12.5654C59.9691 4.5866 56.1352 0 49.4141 0ZM45.4383 12.2787C45.4383 8.59987 46.7636 6.73656 49.4141 6.73656C50.4081 6.73656 53.39 6.73656 53.39 12.2787V36.5017C53.39 41.4705 51.1181 42.0438 49.4141 42.0438C48.4202 42.0438 45.4383 42.0438 45.4383 36.5017V12.2787Z" fill="white"/>
<path d="M32.2801 0.477539H25.6537V3.34416L25.701 36.1192C25.701 36.597 25.6537 37.027 25.6537 37.4092C25.6063 37.7436 25.559 38.1258 25.559 38.4125C25.275 40.4191 24.6597 41.2313 23.2871 41.518C23.1924 41.5658 22.9558 41.5658 22.9558 41.5658C22.8611 41.5658 22.7191 41.6136 22.5771 41.6136C22.4825 41.6136 21.7725 41.6136 21.7725 41.6136H21.2518H19.4532H16.3294C16.3294 41.6136 19.4532 41.1836 19.4532 39.5114V0.477539H12.8268V41.6136H6.67372H3.54984C3.54984 41.6136 6.67372 41.6136 6.67372 39.5114V0.477539H0.0473022V48.3501H21.2518H22.7665C22.9558 48.3501 23.0978 48.3501 23.2871 48.3501C30.0082 48.0157 31.7595 43.238 32.2328 37.9825C32.2801 37.3136 32.3274 36.597 32.3748 35.8803L32.2801 0.477539Z" fill="white"/>
<path d="M77.2924 0.477539C69.2934 0.573093 67.9681 6.83189 67.7788 12.9473L67.4001 23.2672L67.3055 25.7038L66.9741 36.167C66.8321 40.2758 66.2642 41.518 63.8976 41.6613V48.3979H63.9922C71.9913 48.3024 73.3166 42.0436 73.5059 35.9281L73.9319 23.2194L74.3105 12.7085C74.4525 8.59964 75.0205 7.35743 77.3871 7.16632H83.4928C83.4928 7.16632 80.3216 7.16632 80.3216 9.26851V48.3501H86.9007V0.477539H77.2924Z" fill="white"/>
<path d="M108.721 16.244C107.916 16.0051 107.017 15.8617 106.07 15.8617C105.881 15.8617 105.739 15.8617 105.549 15.8617C104.035 15.9573 102.52 16.4351 101.242 17.2951C101.147 17.3428 101.053 17.4384 100.958 17.4862C100.722 17.6773 100.485 17.8684 100.201 18.0117C99.3962 18.5373 98.4496 18.9195 97.503 18.9673H97.2663C97.361 18.9673 99.9169 18.3939 100.343 16.5784C100.39 16.4351 100.39 16.244 100.39 16.1006V0.477539H93.8111V36.2625C93.8111 41.3269 95.4677 45.1013 98.4969 47.1079C99.1122 47.5379 99.7749 47.8724 100.485 48.1112C101.715 48.589 103.088 48.7801 104.603 48.7801C106.117 48.7801 107.49 48.5412 108.721 48.1112C109.431 47.8246 110.14 47.4901 110.756 47.0602C113.785 45.0535 115.442 41.2791 115.442 36.2148V27.806C115.442 21.6428 112.933 17.4384 108.721 16.244ZM108.721 36.5014C108.721 41.518 106.401 42.0913 104.65 42.0913C103.656 42.0913 100.532 42.0913 100.532 36.5014V28.1882C100.532 26.5638 100.816 25.3216 101.337 24.4138L101.384 24.3661C102.094 23.2194 103.183 22.6461 104.603 22.6461C106.496 22.6461 107.821 23.6972 108.437 25.5605C108.626 26.1816 108.721 26.8982 108.721 27.806V36.5014Z" fill="white"/>
<path d="M134.658 0.477539V20.6394C134.658 22.2639 134.374 23.5061 133.854 24.4138L133.806 24.4616C133.096 25.6083 132.008 26.1816 130.588 26.1816C128.694 26.1816 127.369 25.1305 126.754 23.2672C126.565 22.6461 126.47 21.9294 126.47 21.0217V0.477539H119.749V21.0217C119.749 27.1849 122.257 31.3415 126.47 32.5837C127.275 32.8226 128.174 32.9659 129.12 32.9659C129.31 32.9659 129.452 32.9659 129.641 32.9659C131.156 32.8704 132.67 32.3926 133.948 31.5326C134.043 31.4848 134.138 31.3893 134.232 31.3415C134.469 31.1504 134.706 30.9593 134.99 30.816C135.794 30.2904 136.741 29.9082 137.687 29.8604H137.924C137.829 29.8604 135.274 30.4337 134.848 32.2493C134.8 32.3926 134.8 32.5837 134.8 32.727V48.3501H141.379V0.477539H134.658Z" fill="white"/>
<path d="M151.792 41.6136C151.792 41.6136 154.963 41.1836 154.963 39.5114V27.4238H161.637H164.619V20.735H151.84C151.84 20.735 154.963 20.305 155.011 18.6806V12.7562C155.011 12.2785 155.058 11.8485 155.058 11.4663C155.105 11.084 155.105 10.7496 155.153 10.4629C155.2 10.0329 155.295 9.69851 155.389 9.36407C155.815 7.93076 156.573 7.35743 158.135 7.26188C158.182 7.26188 158.371 7.26188 158.561 7.26188H158.608C158.75 7.26188 158.845 7.26188 158.845 7.26188H159.176H167.554V0.477539H159.413H157.898C150.751 0.573093 148.905 5.49413 148.432 10.8452C148.384 11.514 148.337 12.2307 148.29 12.9473V48.3979H169.636V43.238V41.6136H151.792Z" fill="white"/>
<path d="M191.787 22.8376C194.059 21.261 194.911 18.8243 195.195 16.3877C195.29 15.5277 195.337 14.62 195.337 13.8077V13.2822V12.9955C195.337 12.9 195.337 12.8044 195.337 12.7567C195.29 7.83562 193.633 4.15678 190.699 2.15015C190.083 1.72016 189.421 1.38572 188.711 1.09905C187.622 0.669061 186.392 0.477953 185.066 0.430176C183.741 0.477953 182.51 0.669061 181.422 1.09905C180.712 1.38572 180.049 1.72016 179.434 2.15015C176.499 4.15678 174.843 7.78784 174.795 12.7567V12.9955V16.3877V48.3505H185.492C192.45 48.3505 196.142 44.2895 196.142 36.5974V32.7275C196 27.902 194.58 24.6054 191.787 22.8376ZM181.327 12.7567C181.327 8.12228 183.315 7.31007 184.972 7.21452C186.676 7.31007 188.711 8.12228 188.711 12.7567V14.8588C188.711 15.3366 188.711 15.8144 188.664 16.1966C188.38 18.9677 187.102 19.8754 184.025 19.8754H178.203C178.203 19.8754 181.375 19.4454 181.375 17.7732V16.3399L181.327 12.7567ZM189.421 36.4541C189.421 40.0373 188.285 41.5662 185.587 41.614H178.156C178.156 41.614 181.327 41.184 181.327 39.5118V26.612H184.498C188.19 26.612 189.468 28.0453 189.468 32.393V36.4541H189.421Z" fill="white"/>
<path d="M0 69.2289V60.3901H3.26588C3.97585 60.3901 4.63849 60.4857 5.15914 60.7246C5.67979 60.9635 6.1531 61.2501 6.53176 61.6801C6.91041 62.0623 7.1944 62.5401 7.33639 63.0657C7.52572 63.5912 7.62038 64.1645 7.62038 64.7856C7.62038 65.4545 7.52572 66.0756 7.33639 66.6012C7.14707 67.1267 6.81575 67.6045 6.43709 67.9867C6.05844 68.3689 5.58512 68.6556 5.06448 68.8945C4.54383 69.0856 3.92852 69.2289 3.26588 69.2289H0ZM5.58512 64.8334C5.58512 64.4512 5.53779 64.069 5.44313 63.7823C5.34847 63.4956 5.20647 63.209 5.01715 62.9701C4.82782 62.7312 4.59116 62.5401 4.30717 62.4445C4.02318 62.3012 3.69186 62.2534 3.31321 62.2534H2.03526V67.5089H3.26588C3.64453 67.5089 3.97585 67.4611 4.25984 67.3178C4.54383 67.1745 4.78049 66.9834 4.96981 66.7445C5.15914 66.5056 5.30114 66.2189 5.3958 65.9323C5.49046 65.6456 5.58512 65.2156 5.58512 64.8334Z" fill="white"/>
<path d="M12.3535 61.9669V60.1514H14.3414V61.9669H12.3535ZM12.3535 69.229V62.6835H14.3414V69.229H12.3535Z" fill="white"/>
<path d="M21.8672 69.2767C21.4412 69.2767 21.0625 69.1812 20.6839 69.0379C20.3526 68.8468 20.0212 68.6079 19.7846 68.3212C19.5479 68.0345 19.3586 67.6523 19.2166 67.2701C19.0746 66.8879 19.0273 66.4579 19.0273 65.9801C19.0273 65.5024 19.1219 65.0724 19.2639 64.6424C19.4059 64.2124 19.5953 63.8779 19.8793 63.5913C20.1632 63.3046 20.4472 63.0657 20.8259 62.8746C21.2045 62.6835 21.5832 62.6357 22.0565 62.6357C22.5298 62.6357 22.9558 62.7313 23.3345 62.9702C23.7131 63.1613 23.9971 63.4957 24.2338 63.8302V62.7791H25.9377V68.799C25.9377 69.2767 25.843 69.7545 25.6537 70.1367C25.4644 70.519 25.2277 70.8534 24.8964 71.14C24.5651 71.4267 24.1864 71.6178 23.7131 71.7612C23.2398 71.9045 22.7665 72 22.1985 72C21.4885 72 20.9205 71.9045 20.3999 71.6656C19.9266 71.4267 19.4533 71.1401 19.1219 70.7101L20.1632 69.6112C20.3999 69.8978 20.6839 70.089 21.0625 70.2801C21.3939 70.4234 21.7725 70.519 22.1985 70.519C22.4352 70.519 22.6718 70.4712 22.8611 70.4234C23.0978 70.3756 23.2398 70.2323 23.4291 70.1367C23.5711 69.9934 23.7131 69.8023 23.8078 69.6112C23.9024 69.4201 23.9498 69.1334 23.9498 68.799V68.1779C23.7604 68.5601 23.4764 68.799 23.0978 68.9901C22.6718 69.1812 22.2932 69.2767 21.8672 69.2767ZM22.5298 67.7001C22.8138 67.7001 23.0978 67.6046 23.3345 67.4612C23.5711 67.3179 23.7604 67.079 23.9024 66.7923V65.4068C23.7604 65.0724 23.5711 64.7857 23.2871 64.5946C23.0031 64.4035 22.7191 64.3079 22.4352 64.3079C22.1985 64.3079 22.0092 64.3557 21.8672 64.4513C21.6778 64.5468 21.5359 64.6902 21.3939 64.8335C21.2519 64.9768 21.1572 65.1679 21.1099 65.4068C21.0625 65.5979 21.0152 65.8368 21.0152 66.0757C21.0152 66.3146 21.0625 66.5535 21.1099 66.7446C21.2045 66.9357 21.2992 67.1268 21.4412 67.2701C21.5832 67.4134 21.7252 67.5568 21.9145 67.6046C22.1038 67.6523 22.3405 67.7001 22.5298 67.7001Z" fill="white"/>
<path d="M30.9075 61.9669V60.1514H32.8955V61.9669H30.9075ZM30.9075 69.229V62.6835H32.8955V69.229H30.9075Z" fill="white"/>
<path d="M42.1251 68.8945C41.8411 68.99 41.5571 69.1334 41.1785 69.2289C40.8471 69.3245 40.4685 69.3722 40.1372 69.3722C39.9005 69.3722 39.6639 69.3245 39.4272 69.2767C39.1905 69.2289 39.0012 69.1334 38.8592 68.99C38.7172 68.8467 38.5752 68.6556 38.4806 68.4645C38.3859 68.2256 38.3386 67.9867 38.3386 67.6523V64.2601H37.5339V62.779H38.3386V60.7246H40.3265V62.779H41.6518V64.2601H40.3265V66.9834C40.3265 67.2223 40.3738 67.3656 40.4685 67.4612C40.5632 67.5567 40.7051 67.6045 40.8945 67.6045C41.0365 67.6045 41.1785 67.5567 41.3678 67.5089C41.5098 67.4612 41.6518 67.4134 41.7938 67.3656L42.1251 68.8945Z" fill="white"/>
<path d="M48.4202 69.3724C48.0888 69.3724 47.8049 69.3246 47.5209 69.229C47.2369 69.1335 47.0002 68.9902 46.8109 68.7991C46.6216 68.6079 46.4796 68.4168 46.3376 68.1302C46.1956 67.8435 46.1483 67.6046 46.1483 67.318C46.1483 66.9835 46.1956 66.6969 46.3376 66.458C46.4796 66.1713 46.6689 65.9802 46.9056 65.7891C47.1422 65.598 47.4262 65.4547 47.7575 65.3591C48.0888 65.2636 48.4675 65.2158 48.8935 65.2158C49.1775 65.2158 49.4141 65.2158 49.6981 65.2636C49.9348 65.3113 50.1714 65.3591 50.3608 65.4547V65.168C50.3608 64.4036 49.9348 64.0214 49.0828 64.0214C48.7515 64.0214 48.3728 64.0691 48.0888 64.2125C47.8049 64.3558 47.4262 64.4991 47.0949 64.738L46.5269 63.4958C46.9529 63.2091 47.3789 63.018 47.8522 62.8747C48.3255 62.7314 48.7988 62.6836 49.3195 62.6836C50.3134 62.6836 51.0707 62.9225 51.5914 63.4002C52.112 63.878 52.396 64.5469 52.396 65.4547V67.1269C52.396 67.318 52.4434 67.4613 52.4907 67.5569C52.538 67.6524 52.68 67.7002 52.822 67.7002V69.3724C52.6327 69.4202 52.4907 69.4202 52.3487 69.4679C52.2067 69.4679 52.0647 69.4679 51.97 69.4679C51.5914 69.4679 51.3074 69.3724 51.1181 69.229C50.9287 69.0857 50.8341 68.8946 50.7394 68.608L50.6921 68.3213C50.4081 68.7035 50.0768 68.9902 49.6508 69.1813C49.2721 69.2768 48.8462 69.3724 48.4202 69.3724ZM48.9881 67.9391C49.2248 67.9391 49.4141 67.8913 49.6035 67.8435C49.7928 67.748 49.9821 67.6524 50.1241 67.5569C50.3134 67.4135 50.4081 67.2702 50.4081 67.0791V66.458C50.2188 66.4102 50.0294 66.3624 49.8401 66.3147C49.6508 66.2669 49.4615 66.2669 49.2721 66.2669C48.8935 66.2669 48.6095 66.3624 48.3728 66.5058C48.1362 66.6491 48.0415 66.888 48.0415 67.1746C48.0415 67.4135 48.1362 67.6046 48.3255 67.748C48.4675 67.8435 48.7042 67.9391 48.9881 67.9391Z" fill="white"/>
<path d="M57.4605 60.1514H59.4485V66.8879C59.4485 67.3657 59.6378 67.6524 60.0638 67.6524C60.1584 67.6524 60.2531 67.6524 60.3951 67.6046C60.5371 67.5568 60.6318 67.509 60.7264 67.4613L60.9631 68.9424C60.7264 69.0379 60.4424 69.1335 60.1111 69.229C59.7798 69.2768 59.4958 69.3246 59.2118 69.3246C58.6438 69.3246 58.2178 69.1812 57.8865 68.8946C57.6025 68.6079 57.4132 68.1779 57.4132 67.6046V60.1514H57.4605Z" fill="white"/>
<path d="M65.0336 66.7448V64.9771H68.8201V66.7448H65.0336Z" fill="white"/>
<path d="M79.801 69.229H77.8604V64.4513H75.8725V69.229H73.9319V62.6836H79.8483V69.229H79.801Z" fill="white"/>
<path d="M88.9833 69.3722C88.51 69.3722 88.084 69.2766 87.7054 69.0377C87.3267 68.7988 87.0427 68.5599 86.8534 68.1777V71.8566H84.8655V62.6834H86.5694V63.7345C86.8061 63.3522 87.0901 63.0656 87.4687 62.8745C87.8474 62.6834 88.2734 62.54 88.7467 62.54C89.1727 62.54 89.5986 62.6356 89.93 62.7789C90.3086 62.97 90.5926 63.2089 90.8766 63.4956C91.1606 63.7822 91.3499 64.1645 91.4919 64.5467C91.6339 64.9767 91.7286 65.4067 91.7286 65.8844C91.7286 66.3622 91.6812 66.84 91.5392 67.2222C91.3972 67.6522 91.2079 67.9866 90.9713 68.2733C90.7346 68.5599 90.4506 68.7988 90.072 68.9899C89.788 69.2766 89.4093 69.3722 88.9833 69.3722ZM88.3207 67.7C88.5573 67.7 88.7467 67.6522 88.8887 67.5566C89.0307 67.4611 89.22 67.3177 89.362 67.1744C89.504 67.0311 89.5986 66.84 89.646 66.6011C89.6933 66.41 89.7406 66.1711 89.7406 65.9322C89.7406 65.6933 89.6933 65.4544 89.646 65.2633C89.5513 65.0722 89.4566 64.8811 89.3146 64.7378C89.1727 64.5945 89.0307 64.4511 88.8413 64.4033C88.652 64.3078 88.4627 64.26 88.226 64.26C87.942 64.26 87.7054 64.3556 87.4214 64.4989C87.1847 64.6422 86.9954 64.8811 86.8534 65.1678V66.5055C86.9954 66.84 87.1847 67.1266 87.4687 67.3177C87.7527 67.5566 88.0367 67.7 88.3207 67.7Z" fill="white"/>
<path d="M99.5383 69.3722C98.9703 69.3722 98.497 69.2766 98.071 69.0855C97.645 68.8944 97.2664 68.6555 96.9824 68.3688C96.6984 68.0822 96.4617 67.7 96.3197 67.27C96.1777 66.84 96.0831 66.41 96.0831 65.98C96.0831 65.55 96.1777 65.12 96.3197 64.69C96.4617 64.26 96.6984 63.9256 96.9824 63.5911C97.2664 63.3045 97.645 63.0178 98.071 62.8267C98.497 62.6356 98.9703 62.54 99.5383 62.54C100.106 62.54 100.58 62.6356 101.006 62.8267C101.432 63.0178 101.81 63.2567 102.094 63.5911C102.378 63.9256 102.615 64.26 102.757 64.69C102.899 65.12 102.993 65.55 102.993 65.98C102.993 66.41 102.899 66.84 102.757 67.27C102.615 67.7 102.378 68.0344 102.094 68.3688C101.81 68.7033 101.432 68.9422 101.006 69.0855C100.58 69.2766 100.106 69.3722 99.5383 69.3722ZM98.1183 65.98C98.1183 66.5055 98.2603 66.8878 98.5443 67.2222C98.8283 67.5566 99.1596 67.7 99.5856 67.7C99.7749 67.7 99.9643 67.6522 100.154 67.5566C100.343 67.4611 100.485 67.3655 100.58 67.2222C100.722 67.0789 100.816 66.8878 100.864 66.6967C100.958 66.5055 100.958 66.2667 100.958 66.0278C100.958 65.5022 100.816 65.12 100.532 64.7856C100.248 64.4989 99.9169 64.3078 99.4909 64.3078C99.3016 64.3078 99.1123 64.3556 98.923 64.4511C98.7336 64.5467 98.5916 64.6422 98.4496 64.7856C98.3077 64.9289 98.213 65.12 98.1657 65.3111C98.1183 65.5022 98.1183 65.7411 98.1183 65.98Z" fill="white"/>
<path d="M106.875 67.5091H107.206C107.395 67.5091 107.537 67.4614 107.679 67.3658C107.821 67.2703 107.916 67.1269 108.011 66.9358C108.105 66.7447 108.153 66.4581 108.247 66.1236C108.295 65.7892 108.342 65.3592 108.437 64.8336L108.673 62.7314H113.501V67.5091H114.448V70.9969H112.696V69.2291H108.673V70.9969H106.969V67.5091H106.875ZM111.513 67.5091V64.4036H110.377L110.283 65.1203C110.235 65.6458 110.141 66.1236 110.046 66.5058C109.951 66.888 109.809 67.2225 109.62 67.5091H111.513Z" fill="white"/>
<path d="M123.251 62.7314C123.488 62.7314 123.725 62.7792 123.914 62.8748C124.103 62.9703 124.293 63.0659 124.435 63.257C124.577 63.4003 124.671 63.5914 124.766 63.7825C124.861 63.9736 124.861 64.2125 124.861 64.4036C124.861 64.6903 124.766 64.977 124.624 65.2636C124.482 65.5503 124.245 65.7414 123.867 65.8847C124.245 65.9803 124.577 66.1714 124.766 66.4581C125.003 66.6969 125.097 67.0792 125.097 67.5569C125.097 68.178 124.861 68.608 124.435 68.8947C124.009 69.1813 123.393 69.2769 122.636 69.2769H119.086V62.7314H123.251ZM122.305 65.407C122.494 65.407 122.636 65.3592 122.778 65.2636C122.873 65.1681 122.967 64.977 122.967 64.7859C122.967 64.5948 122.92 64.4514 122.825 64.3559C122.731 64.2125 122.589 64.1648 122.399 64.1648H121.169V65.407H122.305ZM122.541 67.7958C122.731 67.7958 122.873 67.748 122.967 67.6047C123.109 67.4614 123.157 67.318 123.157 67.1269C123.157 66.9358 123.109 66.7447 122.967 66.6492C122.873 66.5058 122.683 66.4581 122.494 66.4581H121.027V67.7958H122.541Z" fill="white"/>
<path d="M131.818 66.4103L134.658 62.7314H136.078V69.2769H134.09V65.6936L131.298 69.2769H129.878V62.7314H131.818V66.4103Z" fill="white"/>
<path d="M142.799 62.7314L144.409 65.1203H144.835V62.7314H146.87V65.1203H147.296L148.905 62.7314H151.13L148.952 65.8847L151.366 69.2769H149.047L147.438 66.8403H146.964V69.2769H144.835V66.8403H144.361L142.752 69.2769H140.433L142.799 65.8847L140.622 62.7314H142.799Z" fill="white"/>
<path d="M158.466 69.3722C157.945 69.3722 157.425 69.2767 156.999 69.0856C156.573 68.8945 156.194 68.6556 155.91 68.3689C155.626 68.0823 155.39 67.7 155.248 67.3178C155.106 66.9356 155.011 66.5056 155.011 66.0756C155.011 65.5978 155.106 65.1679 155.248 64.7379C155.39 64.3079 155.626 63.9734 155.91 63.639C156.194 63.3045 156.573 63.0657 156.999 62.8746C157.425 62.6834 157.898 62.5879 158.466 62.5879C159.034 62.5879 159.507 62.6834 159.933 62.8746C160.359 63.0657 160.738 63.3045 161.022 63.5912C161.306 63.8779 161.543 64.2601 161.685 64.6423C161.827 65.0245 161.921 65.4545 161.921 65.9323C161.921 66.0278 161.921 66.1712 161.921 66.2667C161.921 66.3623 161.921 66.4578 161.874 66.5534H157.093C157.141 66.9834 157.283 67.3178 157.567 67.5567C157.851 67.7956 158.182 67.8911 158.513 67.8911C158.797 67.8911 159.081 67.8434 159.365 67.7C159.649 67.5567 159.791 67.3656 159.886 67.1267L161.543 67.6045C161.306 68.13 160.88 68.56 160.359 68.8467C159.839 69.2289 159.223 69.3722 158.466 69.3722ZM159.839 65.359C159.791 64.929 159.649 64.5945 159.413 64.3556C159.176 64.1168 158.845 63.9734 158.466 63.9734C158.087 63.9734 157.756 64.1168 157.519 64.3556C157.283 64.5945 157.141 64.929 157.093 65.3112H159.839V65.359Z" fill="white"/>
<path d="M168.5 65.0247H170.678V62.6836H172.618V69.229H170.678V66.7446H168.5V69.229H166.56V62.6836H168.5V65.0247Z" fill="white"/>
<path d="M179.671 66.4103L182.51 62.7314H183.93V69.2769H181.942V65.6936L179.15 69.2769H177.73V62.7314H179.671V66.4103Z" fill="white"/>
<path d="M192.071 69.3722C191.551 69.3722 191.03 69.2767 190.604 69.0856C190.178 68.8945 189.8 68.6556 189.516 68.3689C189.232 68.0823 188.995 67.7 188.853 67.3178C188.711 66.9356 188.616 66.5056 188.616 66.0756C188.616 65.5978 188.711 65.1679 188.853 64.7379C188.995 64.3079 189.232 63.9734 189.516 63.639C189.8 63.3045 190.178 63.0657 190.604 62.8746C191.03 62.6834 191.503 62.5879 192.071 62.5879C192.639 62.5879 193.113 62.6834 193.539 62.8746C193.965 63.0657 194.343 63.3045 194.627 63.5912C194.911 63.8779 195.148 64.2601 195.29 64.6423C195.432 65.0245 195.527 65.4545 195.527 65.9323C195.527 66.0278 195.527 66.1712 195.527 66.2667C195.527 66.3623 195.527 66.4578 195.479 66.5534H190.699C190.746 66.9834 190.888 67.3178 191.172 67.5567C191.456 67.7956 191.787 67.8911 192.119 67.8911C192.403 67.8911 192.687 67.8434 192.971 67.7C193.255 67.5567 193.397 67.3656 193.491 67.1267L195.148 67.6045C194.911 68.13 194.485 68.56 193.965 68.8467C193.444 69.2289 192.829 69.3722 192.071 69.3722ZM193.444 65.359C193.397 64.929 193.255 64.5945 193.018 64.3556C192.781 64.1168 192.45 63.9734 192.071 63.9734C191.693 63.9734 191.362 64.1168 191.125 64.3556C190.888 64.5945 190.746 64.929 190.699 65.3112H193.444V65.359Z" fill="white"/>
</svg>
