<svg width="197" height="49" viewBox="0 0 197 49" fill="none" xmlns="http://www.w3.org/2000/svg">
<path d="M49.4141 0C42.7877 0 38.9539 4.5866 38.9539 12.5654V36.2628C38.9539 44.146 42.8824 48.8281 49.4141 48.8281C55.9932 48.8281 59.9217 44.146 59.9217 36.2628V12.5654C59.9691 4.5866 56.1352 0 49.4141 0ZM45.4383 12.2787C45.4383 8.59987 46.7636 6.73656 49.4141 6.73656C50.4081 6.73656 53.39 6.73656 53.39 12.2787V36.5017C53.39 41.4705 51.1181 42.0438 49.4141 42.0438C48.4202 42.0438 45.4383 42.0438 45.4383 36.5017V12.2787Z" fill="white"/>
<path d="M32.2801 0.477539H25.6537V3.34416L25.701 36.1192C25.701 36.597 25.6537 37.027 25.6537 37.4092C25.6063 37.7436 25.559 38.1258 25.559 38.4125C25.275 40.4191 24.6597 41.2313 23.2871 41.518C23.1924 41.5658 22.9558 41.5658 22.9558 41.5658C22.8611 41.5658 22.7191 41.6136 22.5771 41.6136C22.4825 41.6136 21.7725 41.6136 21.7725 41.6136H21.2518H19.4532H16.3294C16.3294 41.6136 19.4532 41.1836 19.4532 39.5114V0.477539H12.8268V41.6136H6.67372H3.54984C3.54984 41.6136 6.67372 41.6136 6.67372 39.5114V0.477539H0.0473022V48.3501H21.2518H22.7665C22.9558 48.3501 23.0978 48.3501 23.2871 48.3501C30.0082 48.0157 31.7595 43.238 32.2328 37.9825C32.2801 37.3136 32.3274 36.597 32.3748 35.8803L32.2801 0.477539Z" fill="white"/>
<path d="M77.2924 0.477539C69.2934 0.573093 67.9681 6.83189 67.7788 12.9473L67.4001 23.2672L67.3055 25.7038L66.9741 36.167C66.8321 40.2758 66.2642 41.518 63.8976 41.6613V48.3979H63.9922C71.9913 48.3024 73.3166 42.0436 73.5059 35.9281L73.9319 23.2194L74.3105 12.7085C74.4525 8.59964 75.0205 7.35743 77.3871 7.16632H83.4928C83.4928 7.16632 80.3216 7.16632 80.3216 9.26851V48.3501H86.9007V0.477539H77.2924Z" fill="white"/>
<path d="M108.721 16.244C107.916 16.0051 107.017 15.8617 106.07 15.8617C105.881 15.8617 105.739 15.8617 105.549 15.8617C104.035 15.9573 102.52 16.4351 101.242 17.2951C101.147 17.3428 101.053 17.4384 100.958 17.4862C100.722 17.6773 100.485 17.8684 100.201 18.0117C99.3962 18.5373 98.4496 18.9195 97.503 18.9673H97.2663C97.361 18.9673 99.9169 18.3939 100.343 16.5784C100.39 16.4351 100.39 16.244 100.39 16.1006V0.477539H93.8111V36.2625C93.8111 41.3269 95.4677 45.1013 98.4969 47.1079C99.1122 47.5379 99.7749 47.8724 100.485 48.1112C101.715 48.589 103.088 48.7801 104.603 48.7801C106.117 48.7801 107.49 48.5412 108.721 48.1112C109.431 47.8246 110.14 47.4901 110.756 47.0602C113.785 45.0535 115.442 41.2791 115.442 36.2148V27.806C115.442 21.6428 112.933 17.4384 108.721 16.244ZM108.721 36.5014C108.721 41.518 106.401 42.0913 104.65 42.0913C103.656 42.0913 100.532 42.0913 100.532 36.5014V28.1882C100.532 26.5638 100.816 25.3216 101.337 24.4138L101.384 24.3661C102.094 23.2194 103.183 22.6461 104.603 22.6461C106.496 22.6461 107.821 23.6972 108.437 25.5605C108.626 26.1816 108.721 26.8982 108.721 27.806V36.5014Z" fill="white"/>
<path d="M134.658 0.477539V20.6394C134.658 22.2639 134.374 23.5061 133.854 24.4138L133.806 24.4616C133.096 25.6083 132.008 26.1816 130.588 26.1816C128.694 26.1816 127.369 25.1305 126.754 23.2672C126.565 22.6461 126.47 21.9294 126.47 21.0217V0.477539H119.749V21.0217C119.749 27.1849 122.257 31.3415 126.47 32.5837C127.275 32.8226 128.174 32.9659 129.12 32.9659C129.31 32.9659 129.452 32.9659 129.641 32.9659C131.156 32.8704 132.67 32.3926 133.948 31.5326C134.043 31.4848 134.138 31.3893 134.232 31.3415C134.469 31.1504 134.706 30.9593 134.99 30.816C135.794 30.2904 136.741 29.9082 137.687 29.8604H137.924C137.829 29.8604 135.274 30.4337 134.848 32.2493C134.8 32.3926 134.8 32.5837 134.8 32.727V48.3501H141.379V0.477539H134.658Z" fill="white"/>
<path d="M151.792 41.6136C151.792 41.6136 154.963 41.1836 154.963 39.5114V27.4238H161.637H164.619V20.735H151.84C151.84 20.735 154.963 20.305 155.011 18.6806V12.7562C155.011 12.2785 155.058 11.8485 155.058 11.4663C155.105 11.084 155.105 10.7496 155.153 10.4629C155.2 10.0329 155.295 9.69851 155.389 9.36407C155.815 7.93076 156.573 7.35743 158.135 7.26188C158.182 7.26188 158.371 7.26188 158.561 7.26188H158.608C158.75 7.26188 158.845 7.26188 158.845 7.26188H159.176H167.554V0.477539H159.413H157.898C150.751 0.573093 148.905 5.49413 148.432 10.8452C148.384 11.514 148.337 12.2307 148.29 12.9473V48.3979H169.636V43.238V41.6136H151.792Z" fill="white"/>
<path d="M191.787 22.8376C194.059 21.261 194.911 18.8243 195.195 16.3877C195.29 15.5277 195.337 14.62 195.337 13.8077V13.2822V12.9955C195.337 12.9 195.337 12.8044 195.337 12.7567C195.29 7.83562 193.633 4.15678 190.699 2.15015C190.083 1.72016 189.421 1.38572 188.711 1.09905C187.622 0.669061 186.392 0.477953 185.066 0.430176C183.741 0.477953 182.51 0.669061 181.422 1.09905C180.712 1.38572 180.049 1.72016 179.434 2.15015C176.499 4.15678 174.843 7.78784 174.795 12.7567V12.9955V16.3877V48.3505H185.492C192.45 48.3505 196.142 44.2895 196.142 36.5974V32.7275C196 27.902 194.58 24.6054 191.787 22.8376ZM181.327 12.7567C181.327 8.12228 183.315 7.31007 184.972 7.21452C186.676 7.31007 188.711 8.12228 188.711 12.7567V14.8588C188.711 15.3366 188.711 15.8144 188.664 16.1966C188.38 18.9677 187.102 19.8754 184.025 19.8754H178.203C178.203 19.8754 181.375 19.4454 181.375 17.7732V16.3399L181.327 12.7567ZM189.421 36.4541C189.421 40.0373 188.285 41.5662 185.587 41.614H178.156C178.156 41.614 181.327 41.184 181.327 39.5118V26.612H184.498C188.19 26.612 189.468 28.0453 189.468 32.393V36.4541H189.421Z" fill="white"/>
</svg>
