<svg width="80" height="80" viewBox="0 0 80 80" fill="none" xmlns="http://www.w3.org/2000/svg">
<path d="M78.8281 56.7969H76.3281V17.3438C76.3281 14.1128 73.6997 11.4844 70.4688 11.4844H9.53125C6.30031 11.4844 3.67188 14.1128 3.67188 17.3438V22.9797C3.67188 23.6269 4.19656 24.1516 4.84375 24.1516C5.49094 24.1516 6.01562 23.6269 6.01562 22.9797V17.3438C6.01562 15.4052 7.59266 13.8281 9.53125 13.8281H70.4688C72.4073 13.8281 73.9844 15.4052 73.9844 17.3438V50.5469H66.0813C65.4341 50.5469 64.9094 51.0716 64.9094 51.7188C64.9094 52.3659 65.4341 52.8906 66.0813 52.8906H73.9844V56.7969H6.01562V52.8906H60.9734C61.6206 52.8906 62.1453 52.3659 62.1453 51.7188C62.1453 51.0716 61.6206 50.5469 60.9734 50.5469H6.01562V28.0875C6.01562 27.4403 5.49094 26.9156 4.84375 26.9156C4.19656 26.9156 3.67188 27.4403 3.67188 28.0875V56.7969H1.17188C0.524687 56.7969 0 57.3216 0 57.9688V62.6562C0 65.8872 2.62844 68.5156 5.85938 68.5156H20.3703C21.0175 68.5156 21.5422 67.9909 21.5422 67.3438C21.5422 66.6966 21.0175 66.1719 20.3703 66.1719H5.85938C3.92078 66.1719 2.34375 64.5948 2.34375 62.6562V59.1406H30.3523C30.8967 61.8119 33.2641 63.8281 36.0938 63.8281H43.9062C46.7359 63.8281 49.1033 61.8119 49.6477 59.1406H77.6562V62.6562C77.6562 64.5948 76.0792 66.1719 74.1406 66.1719H25.4781C24.8309 66.1719 24.3062 66.6966 24.3062 67.3438C24.3062 67.9909 24.8309 68.5156 25.4781 68.5156H74.1406C77.3716 68.5156 80 65.8872 80 62.6562V57.9688C80 57.3216 79.4753 56.7969 78.8281 56.7969ZM43.9062 61.4844H36.0938C34.5659 61.4844 33.2625 60.5047 32.7789 59.1406H47.2211C46.7375 60.5047 45.4341 61.4844 43.9062 61.4844Z" fill="#FFA300"/>
<path d="M25.8494 20.5032C18.3106 20.5032 12.1775 26.6363 12.1775 34.175C12.1775 41.7138 18.3106 47.8469 25.8494 47.8469C33.3881 47.8469 39.5213 41.7138 39.5213 34.175C39.5213 33.5279 38.9966 33.0032 38.3494 33.0032H27.0213V21.675C27.0213 21.0279 26.4966 20.5032 25.8494 20.5032ZM37.1172 35.3469C36.5288 41.0446 31.6999 45.5032 25.8492 45.5032C19.6028 45.5032 14.5211 40.4215 14.5211 34.175C14.5211 28.3244 18.9797 23.4955 24.6774 22.9071V34.175C24.6774 34.8222 25.202 35.3469 25.8492 35.3469H37.1172Z" fill="#FFA300"/>
<path d="M42.4836 31.1719C43.1308 31.1719 43.6555 30.6467 43.6555 29.9995C43.6555 22.4608 37.5223 16.3276 29.9836 16.3276C29.3364 16.3276 28.8117 16.8523 28.8117 17.4995V30C28.8117 30.6472 29.3364 31.1719 29.9836 31.1719H42.4836ZM31.1555 18.7315C36.4681 19.2801 40.7034 23.5153 41.2516 28.8281H31.1555V18.7315Z" fill="#FFA300"/>
<path d="M49.1506 31.1719H66.6506C67.2978 31.1719 67.8225 30.6472 67.8225 30C67.8225 29.3528 67.2978 28.8281 66.6506 28.8281H49.1506C48.5034 28.8281 47.9787 29.3528 47.9787 30C47.9787 30.6472 48.5034 31.1719 49.1506 31.1719Z" fill="#FFA300"/>
<path d="M49.1506 36.5535H66.6506C67.2978 36.5535 67.8225 36.0288 67.8225 35.3816C67.8225 34.7344 67.2978 34.2097 66.6506 34.2097H49.1506C48.5034 34.2097 47.9787 34.7344 47.9787 35.3816C47.9787 36.0288 48.5034 36.5535 49.1506 36.5535Z" fill="#FFA300"/>
<path d="M49.1506 41.9353H60.9214C61.5686 41.9353 62.0933 41.4106 62.0933 40.7634C62.0933 40.1162 61.5686 39.5916 60.9214 39.5916H49.1506C48.5034 39.5916 47.9787 40.1162 47.9787 40.7634C47.9787 41.4106 48.5034 41.9353 49.1506 41.9353Z" fill="#FFA300"/>
</svg>
